<?xml version="1.0" encoding="utf-8"?>
<!-- Generator: Adobe Illustrator 24.3.0, SVG Export Plug-In . SVG Version: 6.00 Build 0)  -->
<svg version="1.1" id="Layer_1" xmlns="http://www.w3.org/2000/svg" xmlns:xlink="http://www.w3.org/1999/xlink" x="0px" y="0px"
	 viewBox="0 0 512 512" style="enable-background:new 0 0 512 512;" xml:space="preserve">
<style type="text/css">
	.st0{fill:#009A4E;}
	.st1{fill:#FFFFFF;}
	.st2{fill:#ED1B2F;}
	.st3{fill:#F9B29E;}
	.st4{fill:none;}
</style>
<g>
	<g>
		<path id="XMLID_59_" class="st0" d="M512.05,190.91H90.55c-14.59,0-22.31,0-30.31,0.98c-18.66,2.39-34.94,10.38-44.9,22.03
			c-9.96,11.93-15.29,26.66-15.29,41.95c0,17.68,7.02,34.24,19.64,46.58c9.26,9.26,21.61,15.01,37.32,17.26
			c10.38,1.68,20.63,1.26,30.03,1.26h6.31h383.89L512.05,190.91L512.05,190.91z"/>
		<path id="XMLID_58_" class="st1" d="M474.73,318.17H93.08c-25.26,0-51.63,1.68-71.56-17.68C9.87,289.13,2.86,273.55,2.86,255.87
			c0-15.29,5.33-29.33,14.59-40.27c10.38-12.35,26.66-18.94,42.94-21.05c8.28-0.98,16-0.98,30.03-0.98h417.57L474.73,318.17z"/>
	</g>
	<path class="st2" d="M447.79,278.74c-0.28,1.68-0.7,3.37-0.7,4.63c0,3.93,2.95,4.63,6.03,4.63h6.31l-2.67,10.94h-12.63
		c-3.93,0-7.3-0.28-8.98-0.98c-4.35-1.68-7.02-5.61-7.02-11.37c0-2.67,0.7-5.33,0.98-8c0.7-3.37,17.96-65.25,17.96-65.25l19.64-3.65
		C466.73,209.57,448.07,275.8,447.79,278.74z M340.17,229.21h-13.61l5.33-19.64l-19.64,3.37l-4.35,16.7h-6.59l-2.95,10.94h6.59
		c0,0-10.66,38.31-11.37,41.25c-0.7,1.96-0.98,4.63-0.98,6.59c0,5.05,3.37,8.7,7.72,9.96c1.68,0.7,4.35,0.7,7.72,0.7h13.61
		l2.95-10.94h-7.02c-2.95,0-6.03-0.28-6.03-3.93c0-0.98,0.28-1.96,0.28-3.37c0.28-1.68,11.37-40.69,11.37-40.69h13.61L340.17,229.21
		z M296.25,228.79c-4.63-1.26-9.96-1.96-15.01-1.96c-14.31,0-29.61,7.72-30.03,23.99c0,14.59,17.68,19.64,17.68,27.92
		c0,6.59-6.03,9.26-11.93,9.26c-4.63,0-9.68-0.7-14.31-1.96l-2.95,11.37c6.03,1.96,13.33,2.67,19.64,2.67
		c14.59,0,27.92-8.28,28.34-24.27c0-15.71-16.7-18.94-16.7-27.92c0-7.02,7.02-8.98,12.63-8.98c2.95,0,6.31,0.28,9.26,0.98
		L296.25,228.79z M193.4,225.57c0-12.63-8.7-16.98-19.92-16.98c-11.65,0-21.33,5.33-28.9,14.31
		c-10.38,12.35-18.94,38.59-18.94,54.58c0,16.7,7.02,24.98,23.99,24.98c23.57,0,29.33-19.36,34.94-38.31l-20.35,3.93
		c-1.68,5.33-5.61,21.05-13.05,21.05c-4.35,0-5.33-3.93-5.33-7.72c0-10.66,6.31-31.29,10.38-41.25c1.96-5.33,7.3-17.68,14.31-17.68
		c1.68,0,2.67,0.98,3.37,1.68c0.7,0.98,0.98,1.96,0.98,3.65c0,0.7,0,2.39-0.28,3.37c-0.28,2.67-4.35,16-4.35,16l19.64-3.37
		C191.02,237.91,193.4,231.18,193.4,225.57z M383.24,228.79c-2.95-1.68-7.72-1.96-11.65-1.96c-8,0-17.68,1.26-24.7,5.05
		l-18.66,66.93h18.66l16-58.23c2.67-0.98,5.61-1.26,8.28-1.26c2.39,0,3.65,0,5.05,0.28L383.24,228.79z M244.33,254.47l-11.93,42.94
		c-8.28,2.39-16.98,3.37-25.68,3.37c-10.94,0-22.03-5.33-22.03-17.68c0-21.61,23.29-27.64,40.69-29.33c0.98-2.67,1.68-5.61,1.68-8.7
		c0-5.05-4.35-6.03-8.28-6.03c-5.61,0-13.61,1.68-18.94,3.37l2.95-11.65c6.03-2.67,14.59-3.65,21.33-3.65
		c10.38,0,21.61,3.37,21.61,16C246.02,246.89,245.32,250.54,244.33,254.47z M204.34,280.85c0,4.35,1.96,7.72,6.59,7.72
		c1.68,0,3.37,0,5.33-0.28l6.31-23.01C213.75,266.12,204.34,270.47,204.34,280.85z M423.51,270.47c-6.03,16.7-16,30.31-35.36,30.31
		c-13.33,0-21.05-6.59-21.05-20.35c0-6.03,1.68-12.63,3.37-18.38c5.33-16,17.26-34.94,36.34-34.94c14.31,0,21.05,7.3,21.05,21.33
		C428.14,255.17,425.76,263.87,423.51,270.47z M406.11,239.18c-1.96,0-3.37,0.98-5.05,2.39c-5.05,4.63-10.66,19.36-13.33,30.59
		c-1.26,5.33-1.96,8.28-1.96,11.65c0,2.95,1.26,4.63,3.65,4.63c1.96,0,3.93-1.26,5.33-2.67c2.67-2.67,4.35-6.31,6.31-11.37
		c4.63-11.37,8.28-25.96,8.28-30.59C409.76,241.56,408.78,239.18,406.11,239.18z"/>
	<g>
		<path class="st3" d="M54.49,249.84c0.7,0,1.26,0.7,1.26,1.26c0,0.7-0.7,1.26-1.26,1.26h-3.37c-0.7,0-1.26-0.7-1.26-1.26
			c0-0.56,0.7-1.26,1.26-1.26H54.49z M47.9,246.47h1.96c0.28,0,0.98,0.28,0.98,0.98c0,0.28-0.28,0.98-0.98,0.98H47.9
			c-0.28,0-0.98-0.28-0.98-0.98C46.91,246.75,47.19,246.47,47.9,246.47z M41.58,250.12h1.96c0.28,0,0.98,0.28,0.98,0.98
			c0,0.28-0.28,0.98-0.98,0.98h-1.96c-0.28,0-0.98-0.28-0.98-0.98C40.88,250.54,41.16,250.12,41.58,250.12z M37.51,246.47h1.96
			c0.28,0,0.98,0.28,0.98,0.98c0,0.28-0.28,0.98-0.98,0.98h-1.96c-0.28,0-0.98-0.28-0.98-0.98
			C36.81,246.89,37.23,246.47,37.51,246.47z M35.27,262.89H33.3c-0.28,0-0.98-0.28-0.98-0.98c0-0.28,0.28-0.7,0.98-0.7h1.96
			c0.28,0,0.7,0.28,0.7,0.7C36.25,262.47,35.83,262.89,35.27,262.89z M37.51,255.45h-1.96c-0.28,0-0.98-0.28-0.98-0.7
			c0-0.42,0.28-0.7,0.98-0.7h1.96c0.28,0,0.98,0.28,0.98,0.7C38.5,255.17,37.93,255.45,37.51,255.45z M41.58,259.1h-1.96
			c-0.28,0-0.7-0.28-0.7-0.7s0.28-0.98,0.7-0.98h1.96c0.28,0,0.98,0.28,0.98,0.98C42.14,258.82,41.86,259.1,41.58,259.1z
			 M45.51,262.89h-1.96c-0.28,0-0.7-0.28-0.7-0.98c0-0.28,0.28-0.7,0.7-0.7h1.96c0.28,0,0.98,0.28,0.98,0.7
			C46.21,262.47,45.93,262.89,45.51,262.89z M45.51,255.45c-0.28,0-0.7-0.28-0.7-0.7c0-0.42,0.28-0.7,0.7-0.7h1.96
			c0.28,0,0.7,0.28,0.7,0.7c0,0.42-0.28,0.7-0.7,0.7H45.51z M49.16,259.52c-0.7,0-1.26-0.7-1.26-1.26c0-0.56,0.7-1.26,1.26-1.26
			h3.37c0.7,0,1.26,0.7,1.26,1.26c0,0.56-0.7,1.26-1.26,1.26H49.16z"/>
		<path id="XMLID_38_" class="st4" d="M75.54,248.58h2.39c0.7,0,0.98-0.28,0.98-0.98c0-0.7-0.28-0.98-0.98-0.98h-2.39
			c-0.7,0-0.98,0.28-0.98,0.98C74.56,248.3,75.12,248.58,75.54,248.58z"/>
		<path id="XMLID_37_" class="st4" d="M67.82,252.23h3.65c0.7,0,1.26-0.7,1.26-1.26c0-0.56-0.7-1.26-1.26-1.26h-3.65
			c-0.7,0-1.26,0.7-1.26,1.26C66.56,251.8,67.12,252.23,67.82,252.23z"/>
		<path id="XMLID_36_" class="st4" d="M70.77,258.12c0-0.7-0.7-1.26-1.26-1.26h-3.65c-0.7,0-1.26,0.7-1.26,1.26
			c0,0.56,0.7,1.26,1.26,1.26h3.65C70.21,259.52,70.77,259.1,70.77,258.12z"/>
		<path id="XMLID_35_" class="st4" d="M63.19,256.43c0.98,0,1.68-0.7,1.68-1.68c0-0.98-0.7-1.96-1.68-1.96h-2.67l-0.98,3.65H63.19
			L63.19,256.43z"/>
		<path id="XMLID_34_" class="st4" d="M80.17,251.8h2.39c0.7,0,0.98-0.28,0.98-0.98c0-0.7-0.28-0.98-0.98-0.98h-2.39
			c-0.7,0-0.98,0.28-0.98,0.98C79.19,251.52,79.89,251.8,80.17,251.8z"/>
		<path id="XMLID_33_" class="st4" d="M73.43,260.78h-2.39c-0.7,0-0.98,0.28-0.98,0.98s0.28,0.98,0.98,0.98h2.39
			c0.7,0,0.98-0.28,0.98-0.98S74.13,260.78,73.43,260.78z"/>
		<path id="XMLID_32_" class="st4" d="M87.18,253.49H84.8c-0.7,0-0.98,0.28-0.98,0.98c0,0.7,0.28,0.98,0.98,0.98h2.39
			c0.7,0,0.98-0.28,0.98-0.98C88.17,254.19,87.89,253.49,87.18,253.49z"/>
		<path id="XMLID_31_" class="st4" d="M75.82,253.49h-2.39c-0.7,0-0.98,0.28-0.98,0.98c0,0.7,0.28,0.98,0.98,0.98h2.39
			c0.7,0,0.98-0.28,0.98-0.98C76.8,254.19,76.1,253.49,75.82,253.49z"/>
		<path id="XMLID_30_" class="st4" d="M89.15,246.47h-2.39c-0.7,0-0.98,0.28-0.98,0.98c0,0.7,0.28,0.98,0.98,0.98h2.39
			c0.7,0,0.98-0.28,0.98-0.98C90.13,246.75,89.85,246.47,89.15,246.47z"/>
		<path id="XMLID_29_" class="st4" d="M80.45,257.14h-2.39c-0.7,0-0.98,0.28-0.98,0.98c0,0.7,0.28,0.98,0.98,0.98h2.39
			c0.7,0,0.98-0.28,0.98-0.98C81.43,257.84,80.87,257.14,80.45,257.14z"/>
		<path id="XMLID_28_" class="st4" d="M84.8,260.78h-2.39c-0.7,0-0.98,0.28-0.98,0.98s0.28,0.98,0.98,0.98h2.39
			c0.7,0,0.98-0.28,0.98-0.98S85.5,260.78,84.8,260.78z"/>
		<path id="XMLID_27_" class="st2" d="M41.58,251.8h1.96c0.28,0,0.98-0.28,0.98-0.98c0-0.28-0.28-0.98-0.98-0.98h-1.96
			c-0.28,0-0.98,0.28-0.98,0.98C40.88,251.52,41.16,251.8,41.58,251.8z"/>
		<path id="XMLID_26_" class="st2" d="M47.9,248.16h1.96c0.28,0,0.98-0.28,0.98-0.98c0-0.28-0.28-0.98-0.98-0.98H47.9
			c-0.28,0-0.98,0.28-0.98,0.98S47.19,248.16,47.9,248.16z"/>
		<path id="XMLID_25_" class="st2" d="M62.49,245.49h-3.37c-0.98,0-1.68,0.7-1.68,1.68s0.7,1.68,1.68,1.68h2.67L62.49,245.49
			L62.49,245.49z"/>
		<path id="XMLID_24_" class="st2" d="M50.14,250.82c0,0.7,0.7,1.26,1.26,1.26h3.37c0.7,0,1.26-0.7,1.26-1.26
			c0-0.56-0.7-1.26-1.26-1.26H51.4C50.56,249.84,50.14,250.12,50.14,250.82z"/>
		<path id="XMLID_23_" class="st2" d="M52.81,261.77c0,0.98,0.7,1.68,1.68,1.68h2.67l0.98-3.65h-3.65
			C53.79,260.22,52.81,260.78,52.81,261.77z"/>
		<path id="XMLID_22_" class="st2" d="M59.54,256.43L59.54,256.43L59.54,256.43z"/>
		<path id="XMLID_21_" class="st2" d="M55.19,254.47c0,0.98,0.7,1.96,1.68,1.96h2.39l0,0l0,0l0.98-3.65l0,0H56.6
			C56.17,252.79,55.19,253.49,55.19,254.47z"/>
		<path id="XMLID_20_" class="st2" d="M45.51,261.2h-1.96c-0.28,0-0.7,0.28-0.7,0.7s0.28,0.98,0.7,0.98h1.96
			c0.28,0,0.98-0.28,0.98-0.98C46.21,261.49,45.93,261.2,45.51,261.2z"/>
		<path id="XMLID_19_" class="st2" d="M48.46,254.89c0-0.28-0.28-0.7-0.7-0.7h-1.96c-0.28,0-0.7,0.28-0.7,0.7s0.28,0.7,0.7,0.7h1.96
			C48.18,255.45,48.46,255.17,48.46,254.89z"/>
		<path id="XMLID_18_" class="st2" d="M53.51,258.12c0-0.7-0.7-1.26-1.26-1.26h-3.37c-0.7,0-1.26,0.7-1.26,1.26
			c0,0.56,0.7,1.26,1.26,1.26h3.37C53.23,259.52,53.51,258.82,53.51,258.12z"/>
		<path id="XMLID_17_" class="st2" d="M37.51,248.16h1.96c0.28,0,0.98-0.28,0.98-0.98c0-0.28-0.28-0.98-0.98-0.98h-1.96
			c-0.28,0-0.98,0.28-0.98,0.98C36.81,247.88,37.23,248.16,37.51,248.16z"/>
		<path class="st2" d="M115.81,245.49H65.86c0.7,0.28,1.26,0.98,1.26,1.68c0,0.98-0.7,1.68-1.68,1.68h-3.65l-0.98,3.65l0,0h2.39
			c0.98,0,1.68,0.98,1.68,1.96c0,0.98-0.7,1.68-1.68,1.68h-3.65l0,0l0,0l-0.98,3.65h2.67c0.98,0,1.68,0.7,1.68,1.68
			c0,0.98-0.7,1.68-1.68,1.96h55c0.28-2.67,0.7-5.05,0.7-7.72C116.79,252.51,116.51,248.86,115.81,245.49z M80.17,249.84h2.39
			c0.7,0,0.98,0.28,0.98,0.98c0,0.7-0.28,0.98-0.98,0.98h-2.39c-0.7,0-0.98-0.28-0.98-0.98C79.19,250.54,79.89,249.84,80.17,249.84z
			 M75.54,246.47h2.39c0.7,0,0.98,0.28,0.98,0.98c0,0.7-0.28,0.98-0.98,0.98h-2.39c-0.7,0-0.98-0.28-0.98-0.98
			C74.56,246.75,75.12,246.47,75.54,246.47z M67.82,249.56h3.65c0.7,0,1.26,0.7,1.26,1.26c0,0.7-0.7,1.26-1.26,1.26h-3.65
			c-0.7,0-1.26-0.7-1.26-1.26C66.56,250.26,67.12,249.56,67.82,249.56z M65.86,259.52c-0.7,0-1.26-0.7-1.26-1.26
			c0-0.56,0.7-1.26,1.26-1.26h3.65c0.7,0,1.26,0.7,1.26,1.26c0,0.56-0.7,1.26-1.26,1.26H65.86z M73.43,262.89h-2.39
			c-0.7,0-0.98-0.28-0.98-0.98s0.28-0.98,0.98-0.98h2.39c0.7,0,0.98,0.28,0.98,0.98S74.13,262.89,73.43,262.89z M75.82,255.45h-2.39
			c-0.7,0-0.98-0.28-0.98-0.98c0-0.7,0.28-0.98,0.98-0.98h2.39c0.7,0,0.98,0.28,0.98,0.98C76.8,255.17,76.1,255.45,75.82,255.45z
			 M80.45,259.1h-2.39c-0.7,0-0.98-0.28-0.98-0.98c0-0.7,0.28-0.98,0.98-0.98h2.39c0.7,0,0.98,0.28,0.98,0.98
			C81.43,258.82,80.87,259.1,80.45,259.1z M84.8,262.89h-2.39c-0.7,0-0.98-0.28-0.98-0.98s0.28-0.98,0.98-0.98h2.39
			c0.7,0,0.98,0.28,0.98,0.98S85.5,262.89,84.8,262.89z M87.18,255.45H84.8c-0.7,0-0.98-0.28-0.98-0.98c0-0.7,0.28-0.98,0.98-0.98
			h2.39c0.7,0,0.98,0.28,0.98,0.98C88.17,255.17,87.89,255.45,87.18,255.45z M89.15,248.58h-2.39c-0.7,0-0.98-0.28-0.98-0.98
			c0-0.7,0.28-0.98,0.98-0.98h2.39c0.7,0,0.98,0.28,0.98,0.98C90.13,248.3,89.85,248.58,89.15,248.58z"/>
		<path id="XMLID_5_" class="st2" d="M35.27,261.2H33.3c-0.28,0-0.98,0.28-0.98,0.7s0.28,0.98,0.98,0.98h1.96
			c0.28,0,0.7-0.28,0.7-0.98C36.25,261.49,35.83,261.2,35.27,261.2z"/>
		<path id="XMLID_4_" class="st2" d="M41.58,257.56h-1.96c-0.28,0-0.7,0.28-0.7,0.98c0,0.28,0.28,0.7,0.7,0.7h1.96
			c0.28,0,0.98-0.28,0.98-0.7C42.14,257.84,41.86,257.56,41.58,257.56z"/>
		<path id="XMLID_3_" class="st2" d="M37.51,253.77h-1.96c-0.28,0-0.98,0.28-0.98,0.7c0,0.42,0.28,0.7,0.98,0.7h1.96
			c0.28,0,0.98-0.28,0.98-0.7C38.5,254.05,37.93,253.77,37.51,253.77z"/>
	</g>
	<path class="st0" d="M65.58,204.52c-6.31,0-12.35,0.98-17.68,2.95l-8.28,30.03h74.23C106.13,218.55,87.46,204.52,65.58,204.52z
		 M35.83,271.45c-3.37,0-6.03-0.28-8-1.26c-2.95-1.26-5.33-4.35-5.33-8.98c0-3.93,0.98-7.3,2.39-11.93l9.96-34.24
		c-12.63,9.26-21.05,24.27-21.05,41.25c0,28.34,23.01,51.21,51.21,51.21c23.01,0,42.65-15.01,48.97-35.92H35.83V271.45z"/>
</g>
</svg>
