<?xml version="1.0" encoding="utf-8"?>
<!-- Generator: Adobe Illustrator 27.0.0, SVG Export Plug-In . SVG Version: 6.00 Build 0)  -->
<svg version="1.1" id="Layer_1" xmlns="http://www.w3.org/2000/svg" xmlns:xlink="http://www.w3.org/1999/xlink" x="0px" y="0px"
	 viewBox="0 0 512 512" style="enable-background:new 0 0 512 512;" xml:space="preserve">
<style type="text/css">
	.st0{fill:#FFFFFF;}
	.st1{fill:#D9261C;}
	.st2{fill:#00458F;}
</style>
<g id="XMLID_1_">
	<path id="XMLID_2_" class="st0" d="M22.35,89.1h467.41c12.34,0,22.3,9.96,22.3,22.3V400.7c0,12.34-9.96,22.3-22.3,22.3H22.35
		c-12.34,0-22.3-9.96-22.3-22.3V111.26C0.05,99.06,10.01,89.1,22.35,89.1"/>
	<path id="XMLID_3_" class="st1" d="M7.06,255.42V400c0,8.41,7.01,15.85,15.43,15.85h467.55c8.55,0,15.57-7.71,15.57-16.27V255.42"
		/>
	<polyline id="XMLID_4_" class="st0" points="318.38,272.11 354,272.11 354,368.03 396.64,368.03 396.64,398.46 318.38,398.46 	"/>
	<polyline id="XMLID_5_" class="st0" points="372.52,272.11 413.74,272.11 435.34,309.41 456.24,272.11 497.47,272.11 
		452.03,339.42 452.03,398.46 418.23,398.46 418.23,339.42 	"/>
	<polyline id="XMLID_6_" class="st0" points="34.83,272.11 65.82,272.11 99.34,319.93 132.15,272.11 163.56,272.11 163.56,398.46 
		132.15,398.46 132.15,317.82 102.14,357.93 96.53,357.93 65.82,317.82 65.82,398.46 34.83,398.46 	"/>
	<path id="XMLID_7_" class="st0" d="M170.72,335.21c0-37.16,31.41-67.31,70.12-67.31s70.12,30.15,70.12,67.31
		s-31.41,67.31-70.12,67.31C202.13,402.67,170.72,372.52,170.72,335.21"/>
	<path id="XMLID_8_" class="st1" d="M207.74,335.21c0-20.19,14.86-36.6,33.1-36.6c18.37,0,33.1,16.41,33.1,36.6
		s-14.86,36.6-33.1,36.6C222.6,371.95,207.74,355.55,207.74,335.21"/>
	<path id="XMLID_9_" class="st2" d="M23.05,95.13c-8.83,0-15.99,7.15-15.99,15.99v144.3H505.6v-144.3c0-8.83-7.29-16.13-16.13-16.13
		"/>
	<polyline id="XMLID_10_" class="st0" points="117.99,112.38 153.61,112.38 153.61,238.59 117.99,238.59 	"/>
	<polyline id="XMLID_11_" class="st0" points="442.07,112.38 477.97,112.38 477.97,238.59 442.07,238.59 	"/>
	<polyline id="XMLID_12_" class="st0" points="34.83,112.38 67.08,112.38 67.08,208.58 109.29,208.58 109.29,238.59 34.83,238.59 	
		"/>
	<path id="XMLID_13_" class="st0" d="M313.34,112.38h35.2v79.51c0,11.92,10.24,21.6,23,21.6c12.76,0,23-9.68,23-21.6v-79.51h34.92
		l0.14,91.01c0,0-0.14,39.13-58.06,39.13s-58.2-39.13-58.2-39.13"/>
	<path id="XMLID_14_" class="st0" d="M279.4,251.21l-14.16-15.57c-9.4,4.63-20.19,7.15-31.41,7.15c-38.71,0-70.12-30.15-70.12-67.31
		s31.41-67.31,70.12-67.31s70.12,30.15,70.12,67.31c0,16.83-6.45,32.25-17.11,44.03l18.09,19.07"/>
	<path id="XMLID_15_" class="st2" d="M251.63,182.78l10.66,10.8c2.8-5.33,4.63-11.5,4.63-18.23c0-20.19-14.86-36.6-33.1-36.6
		c-18.37,0-33.1,16.41-33.1,36.6c0,20.19,14.86,36.6,33.1,36.6c3.23,0,6.17-0.56,9.12-1.54l-14.3-15.85"/>
</g>
</svg>
